<mxfile host="app.diagrams.net" modified="2020-09-28T06:31:07.451Z" agent="5.0 (Macintosh; Intel Mac OS X 10_14_6) AppleWebKit/537.36 (KHTML, like Gecko) Chrome/85.0.4183.121 Safari/537.36" etag="NW24XAIZm7lI3UgniWGu" version="13.7.5" type="github" pages="4">
  <diagram id="dcZRmskp8YOQ7ZgXU7Ep" name="时序图">
    <mxGraphModel dx="1634" dy="516" grid="0" gridSize="10" guides="1" tooltips="1" connect="1" arrows="1" fold="1" page="1" pageScale="1" pageWidth="827" pageHeight="1169" math="0" shadow="0">
      <root>
        <mxCell id="0" />
        <mxCell id="1" parent="0" />
        <mxCell id="wiAkDp6cGyL-RK2swN6n-4" value="流程模仿" style="rounded=0;whiteSpace=wrap;html=1;" parent="1" vertex="1">
          <mxGeometry x="260" y="220" width="110" height="30" as="geometry" />
        </mxCell>
        <mxCell id="wiAkDp6cGyL-RK2swN6n-5" value="流程模仿" style="whiteSpace=wrap;html=1;rounded=0;" parent="1" vertex="1">
          <mxGeometry x="255" y="610" width="115" height="35" as="geometry" />
        </mxCell>
        <mxCell id="wiAkDp6cGyL-RK2swN6n-8" value="前置系统" style="rounded=0;whiteSpace=wrap;html=1;" parent="1" vertex="1">
          <mxGeometry x="60" y="220" width="110" height="30" as="geometry" />
        </mxCell>
        <mxCell id="wiAkDp6cGyL-RK2swN6n-9" value="前置系统" style="rounded=0;whiteSpace=wrap;html=1;" parent="1" vertex="1">
          <mxGeometry x="60" y="610" width="110" height="30" as="geometry" />
        </mxCell>
        <mxCell id="wiAkDp6cGyL-RK2swN6n-10" value="" style="endArrow=none;dashed=1;html=1;exitX=0.5;exitY=0;exitDx=0;exitDy=0;" parent="1" source="wiAkDp6cGyL-RK2swN6n-9" edge="1">
          <mxGeometry width="50" height="50" relative="1" as="geometry">
            <mxPoint x="60" y="300" as="sourcePoint" />
            <mxPoint x="110" y="250" as="targetPoint" />
          </mxGeometry>
        </mxCell>
        <mxCell id="wiAkDp6cGyL-RK2swN6n-11" value="" style="endArrow=none;dashed=1;html=1;entryX=0.5;entryY=1;entryDx=0;entryDy=0;exitX=0.5;exitY=0;exitDx=0;exitDy=0;" parent="1" source="wiAkDp6cGyL-RK2swN6n-5" target="wiAkDp6cGyL-RK2swN6n-4" edge="1">
          <mxGeometry width="50" height="50" relative="1" as="geometry">
            <mxPoint x="280" y="430" as="sourcePoint" />
            <mxPoint x="330" y="380" as="targetPoint" />
          </mxGeometry>
        </mxCell>
        <mxCell id="wiAkDp6cGyL-RK2swN6n-12" value="业务管理系统" style="rounded=0;whiteSpace=wrap;html=1;" parent="1" vertex="1">
          <mxGeometry x="660" y="220" width="120" height="30" as="geometry" />
        </mxCell>
        <mxCell id="wiAkDp6cGyL-RK2swN6n-13" value="业务管理系统" style="rounded=0;whiteSpace=wrap;html=1;" parent="1" vertex="1">
          <mxGeometry x="660" y="610" width="120" height="30" as="geometry" />
        </mxCell>
        <mxCell id="wiAkDp6cGyL-RK2swN6n-14" value="" style="endArrow=none;dashed=1;html=1;entryX=0.5;entryY=1;entryDx=0;entryDy=0;exitX=0.5;exitY=0;exitDx=0;exitDy=0;" parent="1" source="wiAkDp6cGyL-RK2swN6n-13" target="wiAkDp6cGyL-RK2swN6n-12" edge="1">
          <mxGeometry width="50" height="50" relative="1" as="geometry">
            <mxPoint x="510" y="430" as="sourcePoint" />
            <mxPoint x="560" y="380" as="targetPoint" />
          </mxGeometry>
        </mxCell>
        <mxCell id="wiAkDp6cGyL-RK2swN6n-15" value="产品管理" style="rounded=0;whiteSpace=wrap;html=1;" parent="1" vertex="1">
          <mxGeometry x="470" y="220" width="110" height="30" as="geometry" />
        </mxCell>
        <mxCell id="wiAkDp6cGyL-RK2swN6n-16" value="产品管理" style="rounded=0;whiteSpace=wrap;html=1;" parent="1" vertex="1">
          <mxGeometry x="470" y="610" width="110" height="30" as="geometry" />
        </mxCell>
        <mxCell id="wiAkDp6cGyL-RK2swN6n-17" value="" style="endArrow=none;dashed=1;html=1;entryX=0.5;entryY=1;entryDx=0;entryDy=0;" parent="1" source="wiAkDp6cGyL-RK2swN6n-16" target="wiAkDp6cGyL-RK2swN6n-15" edge="1">
          <mxGeometry width="50" height="50" relative="1" as="geometry">
            <mxPoint x="490" y="410" as="sourcePoint" />
            <mxPoint x="540" y="360" as="targetPoint" />
          </mxGeometry>
        </mxCell>
        <mxCell id="wiAkDp6cGyL-RK2swN6n-18" value="Actor" style="shape=umlActor;verticalLabelPosition=bottom;verticalAlign=top;html=1;outlineConnect=0;" parent="1" vertex="1">
          <mxGeometry x="-50" y="262" width="30" height="60" as="geometry" />
        </mxCell>
        <mxCell id="wiAkDp6cGyL-RK2swN6n-20" value="" style="endArrow=classic;html=1;" parent="1" edge="1">
          <mxGeometry relative="1" as="geometry">
            <mxPoint y="293" as="sourcePoint" />
            <mxPoint x="100" y="293" as="targetPoint" />
          </mxGeometry>
        </mxCell>
        <mxCell id="wiAkDp6cGyL-RK2swN6n-21" value="接口请求增产品" style="edgeLabel;resizable=0;html=1;align=center;verticalAlign=middle;" parent="wiAkDp6cGyL-RK2swN6n-20" connectable="0" vertex="1">
          <mxGeometry relative="1" as="geometry" />
        </mxCell>
        <mxCell id="wiAkDp6cGyL-RK2swN6n-22" value="" style="curved=1;endArrow=classic;html=1;" parent="1" edge="1">
          <mxGeometry width="50" height="50" relative="1" as="geometry">
            <mxPoint x="120" y="293" as="sourcePoint" />
            <mxPoint x="525" y="287" as="targetPoint" />
            <Array as="points" />
          </mxGeometry>
        </mxCell>
        <mxCell id="wiAkDp6cGyL-RK2swN6n-23" value="参数、商户、产品合法校验" style="edgeLabel;html=1;align=center;verticalAlign=middle;resizable=0;points=[];" parent="wiAkDp6cGyL-RK2swN6n-22" vertex="1" connectable="0">
          <mxGeometry x="-0.5958" y="-5" relative="1" as="geometry">
            <mxPoint as="offset" />
          </mxGeometry>
        </mxCell>
        <mxCell id="wiAkDp6cGyL-RK2swN6n-26" value="" style="endArrow=classic;html=1;" parent="1" edge="1">
          <mxGeometry relative="1" as="geometry">
            <mxPoint x="115" y="333" as="sourcePoint" />
            <mxPoint x="312" y="333" as="targetPoint" />
          </mxGeometry>
        </mxCell>
        <mxCell id="wiAkDp6cGyL-RK2swN6n-27" value="提交申请单" style="edgeLabel;resizable=0;html=1;align=center;verticalAlign=middle;" parent="wiAkDp6cGyL-RK2swN6n-26" connectable="0" vertex="1">
          <mxGeometry relative="1" as="geometry" />
        </mxCell>
        <mxCell id="wiAkDp6cGyL-RK2swN6n-28" value="" style="endArrow=classic;html=1;" parent="1" edge="1">
          <mxGeometry relative="1" as="geometry">
            <mxPoint x="313" y="368" as="sourcePoint" />
            <mxPoint x="525" y="368" as="targetPoint" />
          </mxGeometry>
        </mxCell>
        <mxCell id="wiAkDp6cGyL-RK2swN6n-29" value="获取产品" style="edgeLabel;resizable=0;html=1;align=center;verticalAlign=middle;" parent="wiAkDp6cGyL-RK2swN6n-28" connectable="0" vertex="1">
          <mxGeometry relative="1" as="geometry" />
        </mxCell>
        <mxCell id="wiAkDp6cGyL-RK2swN6n-30" value="" style="endArrow=classic;html=1;" parent="1" edge="1">
          <mxGeometry relative="1" as="geometry">
            <mxPoint x="521" y="406" as="sourcePoint" />
            <mxPoint x="316" y="406" as="targetPoint" />
          </mxGeometry>
        </mxCell>
        <mxCell id="wiAkDp6cGyL-RK2swN6n-31" value="返回产品" style="edgeLabel;resizable=0;html=1;align=center;verticalAlign=middle;" parent="wiAkDp6cGyL-RK2swN6n-30" connectable="0" vertex="1">
          <mxGeometry relative="1" as="geometry" />
        </mxCell>
        <mxCell id="wiAkDp6cGyL-RK2swN6n-33" value="" style="curved=1;endArrow=classic;html=1;" parent="1" edge="1">
          <mxGeometry width="50" height="50" relative="1" as="geometry">
            <mxPoint x="319" y="434" as="sourcePoint" />
            <mxPoint x="319" y="453" as="targetPoint" />
            <Array as="points">
              <mxPoint x="494" y="442" />
            </Array>
          </mxGeometry>
        </mxCell>
        <mxCell id="wiAkDp6cGyL-RK2swN6n-34" value="渲染产品" style="edgeLabel;html=1;align=center;verticalAlign=middle;resizable=0;points=[];" parent="wiAkDp6cGyL-RK2swN6n-33" vertex="1" connectable="0">
          <mxGeometry x="-0.5958" y="-5" relative="1" as="geometry">
            <mxPoint as="offset" />
          </mxGeometry>
        </mxCell>
        <mxCell id="wiAkDp6cGyL-RK2swN6n-35" value="" style="endArrow=classic;html=1;" parent="1" edge="1">
          <mxGeometry relative="1" as="geometry">
            <mxPoint x="313" y="514" as="sourcePoint" />
            <mxPoint x="719" y="514" as="targetPoint" />
          </mxGeometry>
        </mxCell>
        <mxCell id="wiAkDp6cGyL-RK2swN6n-36" value="开通产品服务" style="edgeLabel;resizable=0;html=1;align=center;verticalAlign=middle;" parent="wiAkDp6cGyL-RK2swN6n-35" connectable="0" vertex="1">
          <mxGeometry relative="1" as="geometry" />
        </mxCell>
        <mxCell id="wiAkDp6cGyL-RK2swN6n-39" value="" style="curved=1;endArrow=classic;html=1;" parent="1" edge="1">
          <mxGeometry width="50" height="50" relative="1" as="geometry">
            <mxPoint x="722" y="516" as="sourcePoint" />
            <mxPoint x="722" y="535" as="targetPoint" />
            <Array as="points">
              <mxPoint x="897" y="524" />
            </Array>
          </mxGeometry>
        </mxCell>
        <mxCell id="wiAkDp6cGyL-RK2swN6n-40" value="调用外部服务开通服务" style="edgeLabel;html=1;align=center;verticalAlign=middle;resizable=0;points=[];" parent="wiAkDp6cGyL-RK2swN6n-39" vertex="1" connectable="0">
          <mxGeometry x="-0.5958" y="-5" relative="1" as="geometry">
            <mxPoint as="offset" />
          </mxGeometry>
        </mxCell>
        <mxCell id="wiAkDp6cGyL-RK2swN6n-41" value="" style="endArrow=classic;html=1;" parent="1" edge="1">
          <mxGeometry relative="1" as="geometry">
            <mxPoint x="718" y="545" as="sourcePoint" />
            <mxPoint x="310" y="545" as="targetPoint" />
          </mxGeometry>
        </mxCell>
        <mxCell id="wiAkDp6cGyL-RK2swN6n-42" value="返回开通成功" style="edgeLabel;resizable=0;html=1;align=center;verticalAlign=middle;" parent="wiAkDp6cGyL-RK2swN6n-41" connectable="0" vertex="1">
          <mxGeometry relative="1" as="geometry" />
        </mxCell>
        <mxCell id="wiAkDp6cGyL-RK2swN6n-44" value="" style="endArrow=classic;html=1;" parent="1" edge="1">
          <mxGeometry relative="1" as="geometry">
            <mxPoint x="312" y="356" as="sourcePoint" />
            <mxPoint x="114" y="356" as="targetPoint" />
          </mxGeometry>
        </mxCell>
        <mxCell id="wiAkDp6cGyL-RK2swN6n-45" value="返回提交成功" style="edgeLabel;resizable=0;html=1;align=center;verticalAlign=middle;" parent="wiAkDp6cGyL-RK2swN6n-44" connectable="0" vertex="1">
          <mxGeometry relative="1" as="geometry" />
        </mxCell>
        <mxCell id="dpvnmPPhFNAYfwIcDkAV-1" value="" style="endArrow=classic;html=1;" edge="1" parent="1">
          <mxGeometry relative="1" as="geometry">
            <mxPoint x="525" y="311" as="sourcePoint" />
            <mxPoint x="112" y="311" as="targetPoint" />
          </mxGeometry>
        </mxCell>
        <mxCell id="dpvnmPPhFNAYfwIcDkAV-2" value="返回校验结果" style="edgeLabel;resizable=0;html=1;align=center;verticalAlign=middle;" connectable="0" vertex="1" parent="dpvnmPPhFNAYfwIcDkAV-1">
          <mxGeometry relative="1" as="geometry" />
        </mxCell>
      </root>
    </mxGraphModel>
  </diagram>
  <diagram id="Jtzy0D6wsfil-4vrEozO" name="表设计">
    <mxGraphModel dx="807" dy="516" grid="1" gridSize="10" guides="1" tooltips="1" connect="1" arrows="1" fold="1" page="1" pageScale="1" pageWidth="827" pageHeight="1169" math="0" shadow="0">
      <root>
        <mxCell id="JHiMd2rfB6sixAHcXvbN-0" />
        <mxCell id="JHiMd2rfB6sixAHcXvbN-1" parent="JHiMd2rfB6sixAHcXvbN-0" />
        <mxCell id="NxZWU2OpMrFfuf_eTZ7z-207" value="" style="shape=table;html=1;whiteSpace=wrap;startSize=0;container=1;collapsible=0;childLayout=tableLayout;" vertex="1" parent="JHiMd2rfB6sixAHcXvbN-1">
          <mxGeometry x="220" y="130" width="466" height="560" as="geometry" />
        </mxCell>
        <mxCell id="NxZWU2OpMrFfuf_eTZ7z-208" value="" style="shape=partialRectangle;html=1;whiteSpace=wrap;collapsible=0;dropTarget=0;pointerEvents=0;fillColor=none;top=0;left=0;bottom=0;right=0;points=[[0,0.5],[1,0.5]];portConstraint=eastwest;" vertex="1" parent="NxZWU2OpMrFfuf_eTZ7z-207">
          <mxGeometry width="466" height="40" as="geometry" />
        </mxCell>
        <mxCell id="NxZWU2OpMrFfuf_eTZ7z-209" value="字段" style="shape=partialRectangle;html=1;whiteSpace=wrap;connectable=0;overflow=hidden;fillColor=none;top=0;left=0;bottom=0;right=0;" vertex="1" parent="NxZWU2OpMrFfuf_eTZ7z-208">
          <mxGeometry width="120" height="40" as="geometry" />
        </mxCell>
        <mxCell id="NxZWU2OpMrFfuf_eTZ7z-210" value="类型" style="shape=partialRectangle;html=1;whiteSpace=wrap;connectable=0;overflow=hidden;fillColor=none;top=0;left=0;bottom=0;right=0;" vertex="1" parent="NxZWU2OpMrFfuf_eTZ7z-208">
          <mxGeometry x="120" width="86" height="40" as="geometry" />
        </mxCell>
        <mxCell id="NxZWU2OpMrFfuf_eTZ7z-211" value="注释" style="shape=partialRectangle;html=1;whiteSpace=wrap;connectable=0;overflow=hidden;fillColor=none;top=0;left=0;bottom=0;right=0;" vertex="1" parent="NxZWU2OpMrFfuf_eTZ7z-208">
          <mxGeometry x="206" width="130" height="40" as="geometry" />
        </mxCell>
        <mxCell id="NxZWU2OpMrFfuf_eTZ7z-244" value="说明" style="shape=partialRectangle;html=1;whiteSpace=wrap;connectable=0;overflow=hidden;fillColor=none;top=0;left=0;bottom=0;right=0;" vertex="1" parent="NxZWU2OpMrFfuf_eTZ7z-208">
          <mxGeometry x="336" width="130" height="40" as="geometry" />
        </mxCell>
        <mxCell id="NxZWU2OpMrFfuf_eTZ7z-212" value="" style="shape=partialRectangle;html=1;whiteSpace=wrap;collapsible=0;dropTarget=0;pointerEvents=0;fillColor=none;top=0;left=0;bottom=0;right=0;points=[[0,0.5],[1,0.5]];portConstraint=eastwest;" vertex="1" parent="NxZWU2OpMrFfuf_eTZ7z-207">
          <mxGeometry y="40" width="466" height="40" as="geometry" />
        </mxCell>
        <mxCell id="NxZWU2OpMrFfuf_eTZ7z-213" value="bigint" style="shape=partialRectangle;html=1;whiteSpace=wrap;connectable=0;overflow=hidden;fillColor=none;top=0;left=0;bottom=0;right=0;" vertex="1" parent="NxZWU2OpMrFfuf_eTZ7z-212">
          <mxGeometry width="120" height="40" as="geometry" />
        </mxCell>
        <mxCell id="NxZWU2OpMrFfuf_eTZ7z-214" value="bigint" style="shape=partialRectangle;html=1;whiteSpace=wrap;connectable=0;overflow=hidden;fillColor=none;top=0;left=0;bottom=0;right=0;" vertex="1" parent="NxZWU2OpMrFfuf_eTZ7z-212">
          <mxGeometry x="120" width="86" height="40" as="geometry" />
        </mxCell>
        <mxCell id="NxZWU2OpMrFfuf_eTZ7z-215" value="主键" style="shape=partialRectangle;html=1;whiteSpace=wrap;connectable=0;overflow=hidden;fillColor=none;top=0;left=0;bottom=0;right=0;" vertex="1" parent="NxZWU2OpMrFfuf_eTZ7z-212">
          <mxGeometry x="206" width="130" height="40" as="geometry" />
        </mxCell>
        <mxCell id="NxZWU2OpMrFfuf_eTZ7z-245" value="主键" style="shape=partialRectangle;html=1;whiteSpace=wrap;connectable=0;overflow=hidden;fillColor=none;top=0;left=0;bottom=0;right=0;" vertex="1" parent="NxZWU2OpMrFfuf_eTZ7z-212">
          <mxGeometry x="336" width="130" height="40" as="geometry" />
        </mxCell>
        <mxCell id="NxZWU2OpMrFfuf_eTZ7z-265" style="shape=partialRectangle;html=1;whiteSpace=wrap;collapsible=0;dropTarget=0;pointerEvents=0;fillColor=none;top=0;left=0;bottom=0;right=0;points=[[0,0.5],[1,0.5]];portConstraint=eastwest;" vertex="1" parent="NxZWU2OpMrFfuf_eTZ7z-207">
          <mxGeometry y="80" width="466" height="40" as="geometry" />
        </mxCell>
        <mxCell id="NxZWU2OpMrFfuf_eTZ7z-266" value="version" style="shape=partialRectangle;html=1;whiteSpace=wrap;connectable=0;overflow=hidden;fillColor=none;top=0;left=0;bottom=0;right=0;" vertex="1" parent="NxZWU2OpMrFfuf_eTZ7z-265">
          <mxGeometry width="120" height="40" as="geometry" />
        </mxCell>
        <mxCell id="NxZWU2OpMrFfuf_eTZ7z-267" value="bigint" style="shape=partialRectangle;html=1;whiteSpace=wrap;connectable=0;overflow=hidden;fillColor=none;top=0;left=0;bottom=0;right=0;" vertex="1" parent="NxZWU2OpMrFfuf_eTZ7z-265">
          <mxGeometry x="120" width="86" height="40" as="geometry" />
        </mxCell>
        <mxCell id="NxZWU2OpMrFfuf_eTZ7z-268" value="版本号" style="shape=partialRectangle;html=1;whiteSpace=wrap;connectable=0;overflow=hidden;fillColor=none;top=0;left=0;bottom=0;right=0;" vertex="1" parent="NxZWU2OpMrFfuf_eTZ7z-265">
          <mxGeometry x="206" width="130" height="40" as="geometry" />
        </mxCell>
        <mxCell id="NxZWU2OpMrFfuf_eTZ7z-269" style="shape=partialRectangle;html=1;whiteSpace=wrap;connectable=0;overflow=hidden;fillColor=none;top=0;left=0;bottom=0;right=0;" vertex="1" parent="NxZWU2OpMrFfuf_eTZ7z-265">
          <mxGeometry x="336" width="130" height="40" as="geometry" />
        </mxCell>
        <mxCell id="NxZWU2OpMrFfuf_eTZ7z-270" style="shape=partialRectangle;html=1;whiteSpace=wrap;collapsible=0;dropTarget=0;pointerEvents=0;fillColor=none;top=0;left=0;bottom=0;right=0;points=[[0,0.5],[1,0.5]];portConstraint=eastwest;" vertex="1" parent="NxZWU2OpMrFfuf_eTZ7z-207">
          <mxGeometry y="120" width="466" height="40" as="geometry" />
        </mxCell>
        <mxCell id="NxZWU2OpMrFfuf_eTZ7z-271" value="create_time" style="shape=partialRectangle;html=1;whiteSpace=wrap;connectable=0;overflow=hidden;fillColor=none;top=0;left=0;bottom=0;right=0;" vertex="1" parent="NxZWU2OpMrFfuf_eTZ7z-270">
          <mxGeometry width="120" height="40" as="geometry" />
        </mxCell>
        <mxCell id="NxZWU2OpMrFfuf_eTZ7z-272" value="&lt;span&gt;datetime&lt;/span&gt;" style="shape=partialRectangle;html=1;whiteSpace=wrap;connectable=0;overflow=hidden;fillColor=none;top=0;left=0;bottom=0;right=0;" vertex="1" parent="NxZWU2OpMrFfuf_eTZ7z-270">
          <mxGeometry x="120" width="86" height="40" as="geometry" />
        </mxCell>
        <mxCell id="NxZWU2OpMrFfuf_eTZ7z-273" value="创建时间" style="shape=partialRectangle;html=1;whiteSpace=wrap;connectable=0;overflow=hidden;fillColor=none;top=0;left=0;bottom=0;right=0;" vertex="1" parent="NxZWU2OpMrFfuf_eTZ7z-270">
          <mxGeometry x="206" width="130" height="40" as="geometry" />
        </mxCell>
        <mxCell id="NxZWU2OpMrFfuf_eTZ7z-274" style="shape=partialRectangle;html=1;whiteSpace=wrap;connectable=0;overflow=hidden;fillColor=none;top=0;left=0;bottom=0;right=0;" vertex="1" parent="NxZWU2OpMrFfuf_eTZ7z-270">
          <mxGeometry x="336" width="130" height="40" as="geometry" />
        </mxCell>
        <mxCell id="NxZWU2OpMrFfuf_eTZ7z-275" style="shape=partialRectangle;html=1;whiteSpace=wrap;collapsible=0;dropTarget=0;pointerEvents=0;fillColor=none;top=0;left=0;bottom=0;right=0;points=[[0,0.5],[1,0.5]];portConstraint=eastwest;" vertex="1" parent="NxZWU2OpMrFfuf_eTZ7z-207">
          <mxGeometry y="160" width="466" height="40" as="geometry" />
        </mxCell>
        <mxCell id="NxZWU2OpMrFfuf_eTZ7z-276" value="last_modify_time" style="shape=partialRectangle;html=1;whiteSpace=wrap;connectable=0;overflow=hidden;fillColor=none;top=0;left=0;bottom=0;right=0;" vertex="1" parent="NxZWU2OpMrFfuf_eTZ7z-275">
          <mxGeometry width="120" height="40" as="geometry" />
        </mxCell>
        <mxCell id="NxZWU2OpMrFfuf_eTZ7z-277" value="&lt;span&gt;datetime&lt;/span&gt;" style="shape=partialRectangle;html=1;whiteSpace=wrap;connectable=0;overflow=hidden;fillColor=none;top=0;left=0;bottom=0;right=0;" vertex="1" parent="NxZWU2OpMrFfuf_eTZ7z-275">
          <mxGeometry x="120" width="86" height="40" as="geometry" />
        </mxCell>
        <mxCell id="NxZWU2OpMrFfuf_eTZ7z-278" value="最后更新时间" style="shape=partialRectangle;html=1;whiteSpace=wrap;connectable=0;overflow=hidden;fillColor=none;top=0;left=0;bottom=0;right=0;" vertex="1" parent="NxZWU2OpMrFfuf_eTZ7z-275">
          <mxGeometry x="206" width="130" height="40" as="geometry" />
        </mxCell>
        <mxCell id="NxZWU2OpMrFfuf_eTZ7z-279" style="shape=partialRectangle;html=1;whiteSpace=wrap;connectable=0;overflow=hidden;fillColor=none;top=0;left=0;bottom=0;right=0;" vertex="1" parent="NxZWU2OpMrFfuf_eTZ7z-275">
          <mxGeometry x="336" width="130" height="40" as="geometry" />
        </mxCell>
        <mxCell id="NxZWU2OpMrFfuf_eTZ7z-253" style="shape=partialRectangle;html=1;whiteSpace=wrap;collapsible=0;dropTarget=0;pointerEvents=0;fillColor=none;top=0;left=0;bottom=0;right=0;points=[[0,0.5],[1,0.5]];portConstraint=eastwest;" vertex="1" parent="NxZWU2OpMrFfuf_eTZ7z-207">
          <mxGeometry y="200" width="466" height="40" as="geometry" />
        </mxCell>
        <mxCell id="NxZWU2OpMrFfuf_eTZ7z-254" value="application_no" style="shape=partialRectangle;html=1;whiteSpace=wrap;connectable=0;overflow=hidden;fillColor=none;top=0;left=0;bottom=0;right=0;" vertex="1" parent="NxZWU2OpMrFfuf_eTZ7z-253">
          <mxGeometry width="120" height="40" as="geometry" />
        </mxCell>
        <mxCell id="NxZWU2OpMrFfuf_eTZ7z-255" value="&lt;span&gt;varchar&lt;/span&gt;" style="shape=partialRectangle;html=1;whiteSpace=wrap;connectable=0;overflow=hidden;fillColor=none;top=0;left=0;bottom=0;right=0;" vertex="1" parent="NxZWU2OpMrFfuf_eTZ7z-253">
          <mxGeometry x="120" width="86" height="40" as="geometry" />
        </mxCell>
        <mxCell id="NxZWU2OpMrFfuf_eTZ7z-256" value="工单号" style="shape=partialRectangle;html=1;whiteSpace=wrap;connectable=0;overflow=hidden;fillColor=none;top=0;left=0;bottom=0;right=0;" vertex="1" parent="NxZWU2OpMrFfuf_eTZ7z-253">
          <mxGeometry x="206" width="130" height="40" as="geometry" />
        </mxCell>
        <mxCell id="NxZWU2OpMrFfuf_eTZ7z-257" style="shape=partialRectangle;html=1;whiteSpace=wrap;connectable=0;overflow=hidden;fillColor=none;top=0;left=0;bottom=0;right=0;" vertex="1" parent="NxZWU2OpMrFfuf_eTZ7z-253">
          <mxGeometry x="336" width="130" height="40" as="geometry" />
        </mxCell>
        <mxCell id="NxZWU2OpMrFfuf_eTZ7z-258" style="shape=partialRectangle;html=1;whiteSpace=wrap;collapsible=0;dropTarget=0;pointerEvents=0;fillColor=none;top=0;left=0;bottom=0;right=0;points=[[0,0.5],[1,0.5]];portConstraint=eastwest;" vertex="1" parent="NxZWU2OpMrFfuf_eTZ7z-207">
          <mxGeometry y="240" width="466" height="40" as="geometry" />
        </mxCell>
        <mxCell id="NxZWU2OpMrFfuf_eTZ7z-259" value="application_name" style="shape=partialRectangle;html=1;whiteSpace=wrap;connectable=0;overflow=hidden;fillColor=none;top=0;left=0;bottom=0;right=0;" vertex="1" parent="NxZWU2OpMrFfuf_eTZ7z-258">
          <mxGeometry width="120" height="40" as="geometry" />
        </mxCell>
        <mxCell id="NxZWU2OpMrFfuf_eTZ7z-260" value="&lt;span&gt;varchar&lt;/span&gt;" style="shape=partialRectangle;html=1;whiteSpace=wrap;connectable=0;overflow=hidden;fillColor=none;top=0;left=0;bottom=0;right=0;" vertex="1" parent="NxZWU2OpMrFfuf_eTZ7z-258">
          <mxGeometry x="120" width="86" height="40" as="geometry" />
        </mxCell>
        <mxCell id="NxZWU2OpMrFfuf_eTZ7z-261" value="工单名称" style="shape=partialRectangle;html=1;whiteSpace=wrap;connectable=0;overflow=hidden;fillColor=none;top=0;left=0;bottom=0;right=0;" vertex="1" parent="NxZWU2OpMrFfuf_eTZ7z-258">
          <mxGeometry x="206" width="130" height="40" as="geometry" />
        </mxCell>
        <mxCell id="NxZWU2OpMrFfuf_eTZ7z-262" style="shape=partialRectangle;html=1;whiteSpace=wrap;connectable=0;overflow=hidden;fillColor=none;top=0;left=0;bottom=0;right=0;" vertex="1" parent="NxZWU2OpMrFfuf_eTZ7z-258">
          <mxGeometry x="336" width="130" height="40" as="geometry" />
        </mxCell>
        <mxCell id="NxZWU2OpMrFfuf_eTZ7z-216" value="" style="shape=partialRectangle;html=1;whiteSpace=wrap;collapsible=0;dropTarget=0;pointerEvents=0;fillColor=none;top=0;left=0;bottom=0;right=0;points=[[0,0.5],[1,0.5]];portConstraint=eastwest;" vertex="1" parent="NxZWU2OpMrFfuf_eTZ7z-207">
          <mxGeometry y="280" width="466" height="40" as="geometry" />
        </mxCell>
        <mxCell id="NxZWU2OpMrFfuf_eTZ7z-217" value="&lt;span&gt;request_no&lt;/span&gt;" style="shape=partialRectangle;html=1;whiteSpace=wrap;connectable=0;overflow=hidden;fillColor=none;top=0;left=0;bottom=0;right=0;" vertex="1" parent="NxZWU2OpMrFfuf_eTZ7z-216">
          <mxGeometry width="120" height="40" as="geometry" />
        </mxCell>
        <mxCell id="NxZWU2OpMrFfuf_eTZ7z-218" value="varchar" style="shape=partialRectangle;html=1;whiteSpace=wrap;connectable=0;overflow=hidden;fillColor=none;top=0;left=0;bottom=0;right=0;" vertex="1" parent="NxZWU2OpMrFfuf_eTZ7z-216">
          <mxGeometry x="120" width="86" height="40" as="geometry" />
        </mxCell>
        <mxCell id="NxZWU2OpMrFfuf_eTZ7z-219" value="&lt;span style=&quot;color: rgb(30 , 30 , 30) ; font-family: , &amp;#34;pingfang sc&amp;#34; , sans-serif ; font-size: 13px ; text-align: justify&quot;&gt;请求号&lt;/span&gt;" style="shape=partialRectangle;html=1;whiteSpace=wrap;connectable=0;overflow=hidden;fillColor=none;top=0;left=0;bottom=0;right=0;" vertex="1" parent="NxZWU2OpMrFfuf_eTZ7z-216">
          <mxGeometry x="206" width="130" height="40" as="geometry" />
        </mxCell>
        <mxCell id="NxZWU2OpMrFfuf_eTZ7z-246" value="普通索引" style="shape=partialRectangle;html=1;whiteSpace=wrap;connectable=0;overflow=hidden;fillColor=none;top=0;left=0;bottom=0;right=0;" vertex="1" parent="NxZWU2OpMrFfuf_eTZ7z-216">
          <mxGeometry x="336" width="130" height="40" as="geometry" />
        </mxCell>
        <mxCell id="NxZWU2OpMrFfuf_eTZ7z-220" value="" style="shape=partialRectangle;html=1;whiteSpace=wrap;collapsible=0;dropTarget=0;pointerEvents=0;fillColor=none;top=0;left=0;bottom=0;right=0;points=[[0,0.5],[1,0.5]];portConstraint=eastwest;" vertex="1" parent="NxZWU2OpMrFfuf_eTZ7z-207">
          <mxGeometry y="320" width="466" height="40" as="geometry" />
        </mxCell>
        <mxCell id="NxZWU2OpMrFfuf_eTZ7z-221" value="&lt;span&gt;merchant_no&lt;/span&gt;" style="shape=partialRectangle;html=1;whiteSpace=wrap;connectable=0;overflow=hidden;fillColor=none;top=0;left=0;bottom=0;right=0;" vertex="1" parent="NxZWU2OpMrFfuf_eTZ7z-220">
          <mxGeometry width="120" height="40" as="geometry" />
        </mxCell>
        <mxCell id="NxZWU2OpMrFfuf_eTZ7z-222" value="varchar" style="shape=partialRectangle;html=1;whiteSpace=wrap;connectable=0;overflow=hidden;fillColor=none;top=0;left=0;bottom=0;right=0;" vertex="1" parent="NxZWU2OpMrFfuf_eTZ7z-220">
          <mxGeometry x="120" width="86" height="40" as="geometry" />
        </mxCell>
        <mxCell id="NxZWU2OpMrFfuf_eTZ7z-223" value="&lt;span style=&quot;color: rgb(30 , 30 , 30) ; font-family: , &amp;#34;pingfang sc&amp;#34; , sans-serif ; font-size: 13px ; text-align: justify&quot;&gt;商户编号&lt;/span&gt;" style="shape=partialRectangle;html=1;whiteSpace=wrap;connectable=0;overflow=hidden;fillColor=none;top=0;left=0;bottom=0;right=0;" vertex="1" parent="NxZWU2OpMrFfuf_eTZ7z-220">
          <mxGeometry x="206" width="130" height="40" as="geometry" />
        </mxCell>
        <mxCell id="NxZWU2OpMrFfuf_eTZ7z-247" value="普通索引" style="shape=partialRectangle;html=1;whiteSpace=wrap;connectable=0;overflow=hidden;fillColor=none;top=0;left=0;bottom=0;right=0;" vertex="1" parent="NxZWU2OpMrFfuf_eTZ7z-220">
          <mxGeometry x="336" width="130" height="40" as="geometry" />
        </mxCell>
        <mxCell id="NxZWU2OpMrFfuf_eTZ7z-224" value="" style="shape=partialRectangle;html=1;whiteSpace=wrap;collapsible=0;dropTarget=0;pointerEvents=0;fillColor=none;top=0;left=0;bottom=0;right=0;points=[[0,0.5],[1,0.5]];portConstraint=eastwest;" vertex="1" parent="NxZWU2OpMrFfuf_eTZ7z-207">
          <mxGeometry y="360" width="466" height="40" as="geometry" />
        </mxCell>
        <mxCell id="NxZWU2OpMrFfuf_eTZ7z-225" value="&lt;span&gt;product_code&lt;/span&gt;" style="shape=partialRectangle;html=1;whiteSpace=wrap;connectable=0;overflow=hidden;fillColor=none;top=0;left=0;bottom=0;right=0;" vertex="1" parent="NxZWU2OpMrFfuf_eTZ7z-224">
          <mxGeometry width="120" height="40" as="geometry" />
        </mxCell>
        <mxCell id="NxZWU2OpMrFfuf_eTZ7z-226" value="varchar" style="shape=partialRectangle;html=1;whiteSpace=wrap;connectable=0;overflow=hidden;fillColor=none;top=0;left=0;bottom=0;right=0;" vertex="1" parent="NxZWU2OpMrFfuf_eTZ7z-224">
          <mxGeometry x="120" width="86" height="40" as="geometry" />
        </mxCell>
        <mxCell id="NxZWU2OpMrFfuf_eTZ7z-227" value="&lt;span style=&quot;color: rgb(30 , 30 , 30) ; font-family: , &amp;#34;pingfang sc&amp;#34; , sans-serif ; font-size: 13px ; text-align: justify&quot;&gt;产品唯一码&lt;/span&gt;" style="shape=partialRectangle;html=1;whiteSpace=wrap;connectable=0;overflow=hidden;fillColor=none;top=0;left=0;bottom=0;right=0;" vertex="1" parent="NxZWU2OpMrFfuf_eTZ7z-224">
          <mxGeometry x="206" width="130" height="40" as="geometry" />
        </mxCell>
        <mxCell id="NxZWU2OpMrFfuf_eTZ7z-248" style="shape=partialRectangle;html=1;whiteSpace=wrap;connectable=0;overflow=hidden;fillColor=none;top=0;left=0;bottom=0;right=0;" vertex="1" parent="NxZWU2OpMrFfuf_eTZ7z-224">
          <mxGeometry x="336" width="130" height="40" as="geometry" />
        </mxCell>
        <mxCell id="NxZWU2OpMrFfuf_eTZ7z-228" value="" style="shape=partialRectangle;html=1;whiteSpace=wrap;collapsible=0;dropTarget=0;pointerEvents=0;fillColor=none;top=0;left=0;bottom=0;right=0;points=[[0,0.5],[1,0.5]];portConstraint=eastwest;" vertex="1" parent="NxZWU2OpMrFfuf_eTZ7z-207">
          <mxGeometry y="400" width="466" height="40" as="geometry" />
        </mxCell>
        <mxCell id="NxZWU2OpMrFfuf_eTZ7z-229" value="&lt;span&gt;accounting_strategy&lt;/span&gt;" style="shape=partialRectangle;html=1;whiteSpace=wrap;connectable=0;overflow=hidden;fillColor=none;top=0;left=0;bottom=0;right=0;" vertex="1" parent="NxZWU2OpMrFfuf_eTZ7z-228">
          <mxGeometry width="120" height="40" as="geometry" />
        </mxCell>
        <mxCell id="NxZWU2OpMrFfuf_eTZ7z-230" value="varchar" style="shape=partialRectangle;html=1;whiteSpace=wrap;connectable=0;overflow=hidden;fillColor=none;top=0;left=0;bottom=0;right=0;" vertex="1" parent="NxZWU2OpMrFfuf_eTZ7z-228">
          <mxGeometry x="120" width="86" height="40" as="geometry" />
        </mxCell>
        <mxCell id="NxZWU2OpMrFfuf_eTZ7z-231" value="计费策略" style="shape=partialRectangle;html=1;whiteSpace=wrap;connectable=0;overflow=hidden;fillColor=none;top=0;left=0;bottom=0;right=0;" vertex="1" parent="NxZWU2OpMrFfuf_eTZ7z-228">
          <mxGeometry x="206" width="130" height="40" as="geometry" />
        </mxCell>
        <mxCell id="NxZWU2OpMrFfuf_eTZ7z-249" style="shape=partialRectangle;html=1;whiteSpace=wrap;connectable=0;overflow=hidden;fillColor=none;top=0;left=0;bottom=0;right=0;" vertex="1" parent="NxZWU2OpMrFfuf_eTZ7z-228">
          <mxGeometry x="336" width="130" height="40" as="geometry" />
        </mxCell>
        <mxCell id="NxZWU2OpMrFfuf_eTZ7z-232" value="" style="shape=partialRectangle;html=1;whiteSpace=wrap;collapsible=0;dropTarget=0;pointerEvents=0;fillColor=none;top=0;left=0;bottom=0;right=0;points=[[0,0.5],[1,0.5]];portConstraint=eastwest;" vertex="1" parent="NxZWU2OpMrFfuf_eTZ7z-207">
          <mxGeometry y="440" width="466" height="40" as="geometry" />
        </mxCell>
        <mxCell id="NxZWU2OpMrFfuf_eTZ7z-233" value="&lt;span&gt;fixed&lt;/span&gt;" style="shape=partialRectangle;html=1;whiteSpace=wrap;connectable=0;overflow=hidden;fillColor=none;top=0;left=0;bottom=0;right=0;" vertex="1" parent="NxZWU2OpMrFfuf_eTZ7z-232">
          <mxGeometry width="120" height="40" as="geometry" />
        </mxCell>
        <mxCell id="NxZWU2OpMrFfuf_eTZ7z-234" value="varchar" style="shape=partialRectangle;html=1;whiteSpace=wrap;connectable=0;overflow=hidden;fillColor=none;top=0;left=0;bottom=0;right=0;" vertex="1" parent="NxZWU2OpMrFfuf_eTZ7z-232">
          <mxGeometry x="120" width="86" height="40" as="geometry" />
        </mxCell>
        <mxCell id="NxZWU2OpMrFfuf_eTZ7z-235" value="费率值" style="shape=partialRectangle;html=1;whiteSpace=wrap;connectable=0;overflow=hidden;fillColor=none;top=0;left=0;bottom=0;right=0;" vertex="1" parent="NxZWU2OpMrFfuf_eTZ7z-232">
          <mxGeometry x="206" width="130" height="40" as="geometry" />
        </mxCell>
        <mxCell id="NxZWU2OpMrFfuf_eTZ7z-250" style="shape=partialRectangle;html=1;whiteSpace=wrap;connectable=0;overflow=hidden;fillColor=none;top=0;left=0;bottom=0;right=0;" vertex="1" parent="NxZWU2OpMrFfuf_eTZ7z-232">
          <mxGeometry x="336" width="130" height="40" as="geometry" />
        </mxCell>
        <mxCell id="NxZWU2OpMrFfuf_eTZ7z-236" value="" style="shape=partialRectangle;html=1;whiteSpace=wrap;collapsible=0;dropTarget=0;pointerEvents=0;fillColor=none;top=0;left=0;bottom=0;right=0;points=[[0,0.5],[1,0.5]];portConstraint=eastwest;" vertex="1" parent="NxZWU2OpMrFfuf_eTZ7z-207">
          <mxGeometry y="480" width="466" height="40" as="geometry" />
        </mxCell>
        <mxCell id="NxZWU2OpMrFfuf_eTZ7z-237" value="&lt;span&gt;percent&lt;/span&gt;" style="shape=partialRectangle;html=1;whiteSpace=wrap;connectable=0;overflow=hidden;fillColor=none;top=0;left=0;bottom=0;right=0;" vertex="1" parent="NxZWU2OpMrFfuf_eTZ7z-236">
          <mxGeometry width="120" height="40" as="geometry" />
        </mxCell>
        <mxCell id="NxZWU2OpMrFfuf_eTZ7z-238" value="varchar" style="shape=partialRectangle;html=1;whiteSpace=wrap;connectable=0;overflow=hidden;fillColor=none;top=0;left=0;bottom=0;right=0;" vertex="1" parent="NxZWU2OpMrFfuf_eTZ7z-236">
          <mxGeometry x="120" width="86" height="40" as="geometry" />
        </mxCell>
        <mxCell id="NxZWU2OpMrFfuf_eTZ7z-239" value="百分比费率" style="shape=partialRectangle;html=1;whiteSpace=wrap;connectable=0;overflow=hidden;fillColor=none;top=0;left=0;bottom=0;right=0;" vertex="1" parent="NxZWU2OpMrFfuf_eTZ7z-236">
          <mxGeometry x="206" width="130" height="40" as="geometry" />
        </mxCell>
        <mxCell id="NxZWU2OpMrFfuf_eTZ7z-251" style="shape=partialRectangle;html=1;whiteSpace=wrap;connectable=0;overflow=hidden;fillColor=none;top=0;left=0;bottom=0;right=0;" vertex="1" parent="NxZWU2OpMrFfuf_eTZ7z-236">
          <mxGeometry x="336" width="130" height="40" as="geometry" />
        </mxCell>
        <mxCell id="NxZWU2OpMrFfuf_eTZ7z-240" style="shape=partialRectangle;html=1;whiteSpace=wrap;collapsible=0;dropTarget=0;pointerEvents=0;fillColor=none;top=0;left=0;bottom=0;right=0;points=[[0,0.5],[1,0.5]];portConstraint=eastwest;" vertex="1" parent="NxZWU2OpMrFfuf_eTZ7z-207">
          <mxGeometry y="520" width="466" height="40" as="geometry" />
        </mxCell>
        <mxCell id="NxZWU2OpMrFfuf_eTZ7z-241" value="&lt;span&gt;profit_percent&lt;/span&gt;" style="shape=partialRectangle;html=1;whiteSpace=wrap;connectable=0;overflow=hidden;fillColor=none;top=0;left=0;bottom=0;right=0;" vertex="1" parent="NxZWU2OpMrFfuf_eTZ7z-240">
          <mxGeometry width="120" height="40" as="geometry" />
        </mxCell>
        <mxCell id="NxZWU2OpMrFfuf_eTZ7z-242" value="varchar" style="shape=partialRectangle;html=1;whiteSpace=wrap;connectable=0;overflow=hidden;fillColor=none;top=0;left=0;bottom=0;right=0;" vertex="1" parent="NxZWU2OpMrFfuf_eTZ7z-240">
          <mxGeometry x="120" width="86" height="40" as="geometry" />
        </mxCell>
        <mxCell id="NxZWU2OpMrFfuf_eTZ7z-243" value="代理分润（saas必填）" style="shape=partialRectangle;html=1;whiteSpace=wrap;connectable=0;overflow=hidden;fillColor=none;top=0;left=0;bottom=0;right=0;" vertex="1" parent="NxZWU2OpMrFfuf_eTZ7z-240">
          <mxGeometry x="206" width="130" height="40" as="geometry" />
        </mxCell>
        <mxCell id="NxZWU2OpMrFfuf_eTZ7z-252" style="shape=partialRectangle;html=1;whiteSpace=wrap;connectable=0;overflow=hidden;fillColor=none;top=0;left=0;bottom=0;right=0;" vertex="1" parent="NxZWU2OpMrFfuf_eTZ7z-240">
          <mxGeometry x="336" width="130" height="40" as="geometry" />
        </mxCell>
      </root>
    </mxGraphModel>
  </diagram>
  <diagram id="HDPJRzUc70s01ERDeE9x" name="产品合法性校验流程图">
    <mxGraphModel dx="1634" dy="516" grid="1" gridSize="10" guides="1" tooltips="1" connect="1" arrows="1" fold="1" page="1" pageScale="1" pageWidth="827" pageHeight="1169" math="0" shadow="0">
      <root>
        <mxCell id="ogCLVzEwHubr8CHfSmQu-0" />
        <mxCell id="ogCLVzEwHubr8CHfSmQu-1" parent="ogCLVzEwHubr8CHfSmQu-0" />
        <mxCell id="LSL4i0tNR-0hNUZhMMNE-2" value="" style="edgeStyle=orthogonalEdgeStyle;rounded=0;orthogonalLoop=1;jettySize=auto;html=1;" edge="1" parent="ogCLVzEwHubr8CHfSmQu-1" source="ogCLVzEwHubr8CHfSmQu-2" target="LSL4i0tNR-0hNUZhMMNE-1">
          <mxGeometry relative="1" as="geometry" />
        </mxCell>
        <mxCell id="ogCLVzEwHubr8CHfSmQu-2" value="开始" style="strokeWidth=2;html=1;shape=mxgraph.flowchart.start_1;whiteSpace=wrap;" vertex="1" parent="ogCLVzEwHubr8CHfSmQu-1">
          <mxGeometry x="300" y="50" width="100" height="60" as="geometry" />
        </mxCell>
        <mxCell id="LSL4i0tNR-0hNUZhMMNE-5" value="" style="edgeStyle=orthogonalEdgeStyle;rounded=0;orthogonalLoop=1;jettySize=auto;html=1;" edge="1" parent="ogCLVzEwHubr8CHfSmQu-1" source="LSL4i0tNR-0hNUZhMMNE-0" target="LSL4i0tNR-0hNUZhMMNE-4">
          <mxGeometry relative="1" as="geometry" />
        </mxCell>
        <mxCell id="LSL4i0tNR-0hNUZhMMNE-6" value="是" style="edgeLabel;html=1;align=center;verticalAlign=middle;resizable=0;points=[];" vertex="1" connectable="0" parent="LSL4i0tNR-0hNUZhMMNE-5">
          <mxGeometry x="0.1059" relative="1" as="geometry">
            <mxPoint as="offset" />
          </mxGeometry>
        </mxCell>
        <mxCell id="LSL4i0tNR-0hNUZhMMNE-22" value="" style="edgeStyle=orthogonalEdgeStyle;rounded=0;orthogonalLoop=1;jettySize=auto;html=1;" edge="1" parent="ogCLVzEwHubr8CHfSmQu-1" source="LSL4i0tNR-0hNUZhMMNE-0" target="LSL4i0tNR-0hNUZhMMNE-26">
          <mxGeometry relative="1" as="geometry">
            <mxPoint x="349" y="325" as="targetPoint" />
          </mxGeometry>
        </mxCell>
        <mxCell id="LSL4i0tNR-0hNUZhMMNE-23" value="否" style="edgeLabel;html=1;align=center;verticalAlign=middle;resizable=0;points=[];" vertex="1" connectable="0" parent="LSL4i0tNR-0hNUZhMMNE-22">
          <mxGeometry x="-0.35" relative="1" as="geometry">
            <mxPoint as="offset" />
          </mxGeometry>
        </mxCell>
        <mxCell id="LSL4i0tNR-0hNUZhMMNE-0" value="商户角色是否saas" style="strokeWidth=2;html=1;shape=mxgraph.flowchart.decision;whiteSpace=wrap;" vertex="1" parent="ogCLVzEwHubr8CHfSmQu-1">
          <mxGeometry x="284" y="230" width="130" height="60" as="geometry" />
        </mxCell>
        <mxCell id="LSL4i0tNR-0hNUZhMMNE-3" value="" style="edgeStyle=orthogonalEdgeStyle;rounded=0;orthogonalLoop=1;jettySize=auto;html=1;" edge="1" parent="ogCLVzEwHubr8CHfSmQu-1" source="LSL4i0tNR-0hNUZhMMNE-1" target="LSL4i0tNR-0hNUZhMMNE-0">
          <mxGeometry relative="1" as="geometry" />
        </mxCell>
        <mxCell id="LSL4i0tNR-0hNUZhMMNE-1" value="根据商编查询商户信息" style="whiteSpace=wrap;html=1;strokeWidth=2;" vertex="1" parent="ogCLVzEwHubr8CHfSmQu-1">
          <mxGeometry x="289" y="140" width="120" height="60" as="geometry" />
        </mxCell>
        <mxCell id="LSL4i0tNR-0hNUZhMMNE-8" value="" style="edgeStyle=orthogonalEdgeStyle;rounded=0;orthogonalLoop=1;jettySize=auto;html=1;" edge="1" parent="ogCLVzEwHubr8CHfSmQu-1" source="LSL4i0tNR-0hNUZhMMNE-4" target="LSL4i0tNR-0hNUZhMMNE-7">
          <mxGeometry relative="1" as="geometry" />
        </mxCell>
        <mxCell id="LSL4i0tNR-0hNUZhMMNE-4" value="查询产品管理服务，获取saas商户指导产品" style="whiteSpace=wrap;html=1;strokeWidth=2;" vertex="1" parent="ogCLVzEwHubr8CHfSmQu-1">
          <mxGeometry x="79" y="230" width="120" height="60" as="geometry" />
        </mxCell>
        <mxCell id="LSL4i0tNR-0hNUZhMMNE-12" style="edgeStyle=orthogonalEdgeStyle;rounded=0;orthogonalLoop=1;jettySize=auto;html=1;exitX=0.5;exitY=1;exitDx=0;exitDy=0;entryX=0;entryY=0.625;entryDx=0;entryDy=0;entryPerimeter=0;" edge="1" parent="ogCLVzEwHubr8CHfSmQu-1" source="LSL4i0tNR-0hNUZhMMNE-7" target="LSL4i0tNR-0hNUZhMMNE-9">
          <mxGeometry relative="1" as="geometry" />
        </mxCell>
        <mxCell id="LSL4i0tNR-0hNUZhMMNE-13" value="否" style="edgeLabel;html=1;align=center;verticalAlign=middle;resizable=0;points=[];" vertex="1" connectable="0" parent="LSL4i0tNR-0hNUZhMMNE-12">
          <mxGeometry x="-0.3362" y="3" relative="1" as="geometry">
            <mxPoint as="offset" />
          </mxGeometry>
        </mxCell>
        <mxCell id="LSL4i0tNR-0hNUZhMMNE-15" value="" style="edgeStyle=orthogonalEdgeStyle;rounded=0;orthogonalLoop=1;jettySize=auto;html=1;" edge="1" parent="ogCLVzEwHubr8CHfSmQu-1" source="LSL4i0tNR-0hNUZhMMNE-7" target="LSL4i0tNR-0hNUZhMMNE-16">
          <mxGeometry relative="1" as="geometry">
            <mxPoint x="40" y="355" as="targetPoint" />
          </mxGeometry>
        </mxCell>
        <mxCell id="39iaVH3k_10COukjtUeR-0" value="是" style="edgeLabel;html=1;align=center;verticalAlign=middle;resizable=0;points=[];" vertex="1" connectable="0" parent="LSL4i0tNR-0hNUZhMMNE-15">
          <mxGeometry x="-0.1589" y="2" relative="1" as="geometry">
            <mxPoint as="offset" />
          </mxGeometry>
        </mxCell>
        <mxCell id="LSL4i0tNR-0hNUZhMMNE-7" value="指导产品是否包含入参产品" style="rhombus;whiteSpace=wrap;html=1;strokeWidth=2;" vertex="1" parent="ogCLVzEwHubr8CHfSmQu-1">
          <mxGeometry x="83.5" y="320" width="111" height="70" as="geometry" />
        </mxCell>
        <mxCell id="LSL4i0tNR-0hNUZhMMNE-9" value="结束" style="ellipse;whiteSpace=wrap;html=1;strokeWidth=2;" vertex="1" parent="ogCLVzEwHubr8CHfSmQu-1">
          <mxGeometry x="289" y="670" width="120" height="80" as="geometry" />
        </mxCell>
        <mxCell id="LSL4i0tNR-0hNUZhMMNE-16" value="结束&lt;br&gt;已存在该产品" style="strokeWidth=2;html=1;shape=mxgraph.flowchart.start_1;whiteSpace=wrap;" vertex="1" parent="ogCLVzEwHubr8CHfSmQu-1">
          <mxGeometry x="-70" y="325" width="100" height="60" as="geometry" />
        </mxCell>
        <mxCell id="LSL4i0tNR-0hNUZhMMNE-30" value="" style="edgeStyle=orthogonalEdgeStyle;rounded=0;orthogonalLoop=1;jettySize=auto;html=1;" edge="1" parent="ogCLVzEwHubr8CHfSmQu-1" source="LSL4i0tNR-0hNUZhMMNE-26" target="LSL4i0tNR-0hNUZhMMNE-29">
          <mxGeometry relative="1" as="geometry" />
        </mxCell>
        <mxCell id="LSL4i0tNR-0hNUZhMMNE-31" value="是" style="edgeLabel;html=1;align=center;verticalAlign=middle;resizable=0;points=[];" vertex="1" connectable="0" parent="LSL4i0tNR-0hNUZhMMNE-30">
          <mxGeometry x="-0.0348" y="4" relative="1" as="geometry">
            <mxPoint y="1" as="offset" />
          </mxGeometry>
        </mxCell>
        <mxCell id="39iaVH3k_10COukjtUeR-2" value="" style="edgeStyle=orthogonalEdgeStyle;rounded=0;orthogonalLoop=1;jettySize=auto;html=1;entryX=0.5;entryY=0;entryDx=0;entryDy=0;entryPerimeter=0;" edge="1" parent="ogCLVzEwHubr8CHfSmQu-1" source="LSL4i0tNR-0hNUZhMMNE-26" target="LSL4i0tNR-0hNUZhMMNE-33">
          <mxGeometry relative="1" as="geometry">
            <mxPoint x="349" y="430" as="targetPoint" />
          </mxGeometry>
        </mxCell>
        <mxCell id="39iaVH3k_10COukjtUeR-3" value="否" style="edgeLabel;html=1;align=center;verticalAlign=middle;resizable=0;points=[];" vertex="1" connectable="0" parent="39iaVH3k_10COukjtUeR-2">
          <mxGeometry x="-0.1727" y="-1" relative="1" as="geometry">
            <mxPoint as="offset" />
          </mxGeometry>
        </mxCell>
        <mxCell id="LSL4i0tNR-0hNUZhMMNE-26" value="&lt;span&gt;查询客户中心该商户已开通的产品是否包含入参产品&lt;/span&gt;" style="strokeWidth=2;html=1;shape=mxgraph.flowchart.decision;whiteSpace=wrap;" vertex="1" parent="ogCLVzEwHubr8CHfSmQu-1">
          <mxGeometry x="268.5" y="325" width="161" height="75" as="geometry" />
        </mxCell>
        <mxCell id="LSL4i0tNR-0hNUZhMMNE-29" value="结束&lt;br&gt;已存在该产品" style="ellipse;whiteSpace=wrap;html=1;strokeWidth=2;" vertex="1" parent="ogCLVzEwHubr8CHfSmQu-1">
          <mxGeometry x="530" y="322.5" width="120" height="80" as="geometry" />
        </mxCell>
        <mxCell id="LSL4i0tNR-0hNUZhMMNE-35" value="" style="edgeStyle=orthogonalEdgeStyle;rounded=0;orthogonalLoop=1;jettySize=auto;html=1;entryX=0.5;entryY=0;entryDx=0;entryDy=0;entryPerimeter=0;" edge="1" parent="ogCLVzEwHubr8CHfSmQu-1" source="LSL4i0tNR-0hNUZhMMNE-33" target="LSL4i0tNR-0hNUZhMMNE-36">
          <mxGeometry relative="1" as="geometry">
            <mxPoint x="349.29999999999995" y="542.5" as="targetPoint" />
          </mxGeometry>
        </mxCell>
        <mxCell id="LSL4i0tNR-0hNUZhMMNE-37" value="是" style="edgeLabel;html=1;align=center;verticalAlign=middle;resizable=0;points=[];" vertex="1" connectable="0" parent="LSL4i0tNR-0hNUZhMMNE-35">
          <mxGeometry x="0.0172" y="3" relative="1" as="geometry">
            <mxPoint x="-1" y="-2" as="offset" />
          </mxGeometry>
        </mxCell>
        <mxCell id="39iaVH3k_10COukjtUeR-7" value="" style="edgeStyle=orthogonalEdgeStyle;rounded=0;orthogonalLoop=1;jettySize=auto;html=1;" edge="1" parent="ogCLVzEwHubr8CHfSmQu-1" source="LSL4i0tNR-0hNUZhMMNE-33" target="39iaVH3k_10COukjtUeR-6">
          <mxGeometry relative="1" as="geometry" />
        </mxCell>
        <mxCell id="LSL4i0tNR-0hNUZhMMNE-33" value="查询一级商户信息是否saas" style="strokeWidth=2;html=1;shape=mxgraph.flowchart.decision;whiteSpace=wrap;" vertex="1" parent="ogCLVzEwHubr8CHfSmQu-1">
          <mxGeometry x="284" y="462.5" width="135.75" height="50" as="geometry" />
        </mxCell>
        <mxCell id="LSL4i0tNR-0hNUZhMMNE-39" value="" style="edgeStyle=orthogonalEdgeStyle;rounded=0;orthogonalLoop=1;jettySize=auto;html=1;" edge="1" parent="ogCLVzEwHubr8CHfSmQu-1" source="LSL4i0tNR-0hNUZhMMNE-36" target="LSL4i0tNR-0hNUZhMMNE-38">
          <mxGeometry relative="1" as="geometry" />
        </mxCell>
        <mxCell id="LSL4i0tNR-0hNUZhMMNE-40" value="否" style="edgeLabel;html=1;align=center;verticalAlign=middle;resizable=0;points=[];" vertex="1" connectable="0" parent="LSL4i0tNR-0hNUZhMMNE-39">
          <mxGeometry x="-0.1" y="-1" relative="1" as="geometry">
            <mxPoint as="offset" />
          </mxGeometry>
        </mxCell>
        <mxCell id="LSL4i0tNR-0hNUZhMMNE-41" value="" style="edgeStyle=orthogonalEdgeStyle;rounded=0;orthogonalLoop=1;jettySize=auto;html=1;" edge="1" parent="ogCLVzEwHubr8CHfSmQu-1" source="LSL4i0tNR-0hNUZhMMNE-36" target="LSL4i0tNR-0hNUZhMMNE-9">
          <mxGeometry relative="1" as="geometry" />
        </mxCell>
        <mxCell id="39iaVH3k_10COukjtUeR-4" value="是" style="edgeLabel;html=1;align=center;verticalAlign=middle;resizable=0;points=[];" vertex="1" connectable="0" parent="LSL4i0tNR-0hNUZhMMNE-41">
          <mxGeometry x="0.4737" y="-12" relative="1" as="geometry">
            <mxPoint x="9" y="-11" as="offset" />
          </mxGeometry>
        </mxCell>
        <mxCell id="LSL4i0tNR-0hNUZhMMNE-36" value="一级商户代理产品是否包含入参产品" style="strokeWidth=2;html=1;shape=mxgraph.flowchart.decision;whiteSpace=wrap;" vertex="1" parent="ogCLVzEwHubr8CHfSmQu-1">
          <mxGeometry x="290" y="552.5" width="120" height="70" as="geometry" />
        </mxCell>
        <mxCell id="LSL4i0tNR-0hNUZhMMNE-38" value="结束&lt;br&gt;&lt;span style=&quot;color: rgba(0 , 0 , 0 , 0.93) ; font-family: , &amp;#34;pingfang sc&amp;#34; , sans-serif ; font-size: 13px&quot;&gt;上级商户未代理该产品&lt;/span&gt;" style="ellipse;whiteSpace=wrap;html=1;strokeWidth=2;" vertex="1" parent="ogCLVzEwHubr8CHfSmQu-1">
          <mxGeometry x="650" y="547.5" width="120" height="80" as="geometry" />
        </mxCell>
        <mxCell id="LSL4i0tNR-0hNUZhMMNE-47" value="" style="edgeStyle=orthogonalEdgeStyle;rounded=0;orthogonalLoop=1;jettySize=auto;html=1;" edge="1" parent="ogCLVzEwHubr8CHfSmQu-1" source="LSL4i0tNR-0hNUZhMMNE-44" target="LSL4i0tNR-0hNUZhMMNE-38">
          <mxGeometry relative="1" as="geometry" />
        </mxCell>
        <mxCell id="LSL4i0tNR-0hNUZhMMNE-48" value="否" style="edgeLabel;html=1;align=center;verticalAlign=middle;resizable=0;points=[];" vertex="1" connectable="0" parent="LSL4i0tNR-0hNUZhMMNE-47">
          <mxGeometry x="0.1579" relative="1" as="geometry">
            <mxPoint as="offset" />
          </mxGeometry>
        </mxCell>
        <mxCell id="LSL4i0tNR-0hNUZhMMNE-50" style="edgeStyle=orthogonalEdgeStyle;rounded=0;orthogonalLoop=1;jettySize=auto;html=1;exitX=1;exitY=0.5;exitDx=0;exitDy=0;exitPerimeter=0;entryX=1;entryY=0.5;entryDx=0;entryDy=0;" edge="1" parent="ogCLVzEwHubr8CHfSmQu-1" source="LSL4i0tNR-0hNUZhMMNE-44" target="LSL4i0tNR-0hNUZhMMNE-9">
          <mxGeometry relative="1" as="geometry" />
        </mxCell>
        <mxCell id="LSL4i0tNR-0hNUZhMMNE-51" value="是" style="edgeLabel;html=1;align=center;verticalAlign=middle;resizable=0;points=[];" vertex="1" connectable="0" parent="LSL4i0tNR-0hNUZhMMNE-50">
          <mxGeometry x="-0.2374" y="-1" relative="1" as="geometry">
            <mxPoint as="offset" />
          </mxGeometry>
        </mxCell>
        <mxCell id="LSL4i0tNR-0hNUZhMMNE-44" value="一级商户产品是否已开通入参产品" style="strokeWidth=2;html=1;shape=mxgraph.flowchart.decision;whiteSpace=wrap;" vertex="1" parent="ogCLVzEwHubr8CHfSmQu-1">
          <mxGeometry x="630" y="460" width="160" height="55" as="geometry" />
        </mxCell>
        <mxCell id="39iaVH3k_10COukjtUeR-8" style="edgeStyle=orthogonalEdgeStyle;rounded=0;orthogonalLoop=1;jettySize=auto;html=1;exitX=0.5;exitY=1;exitDx=0;exitDy=0;exitPerimeter=0;" edge="1" parent="ogCLVzEwHubr8CHfSmQu-1" source="39iaVH3k_10COukjtUeR-6" target="LSL4i0tNR-0hNUZhMMNE-9">
          <mxGeometry relative="1" as="geometry">
            <Array as="points">
              <mxPoint x="518" y="630" />
              <mxPoint x="349" y="630" />
            </Array>
          </mxGeometry>
        </mxCell>
        <mxCell id="39iaVH3k_10COukjtUeR-9" value="是" style="edgeLabel;html=1;align=center;verticalAlign=middle;resizable=0;points=[];" vertex="1" connectable="0" parent="39iaVH3k_10COukjtUeR-8">
          <mxGeometry x="-0.223" y="-20" relative="1" as="geometry">
            <mxPoint x="-20" y="21" as="offset" />
          </mxGeometry>
        </mxCell>
        <mxCell id="39iaVH3k_10COukjtUeR-10" value="" style="edgeStyle=orthogonalEdgeStyle;rounded=0;orthogonalLoop=1;jettySize=auto;html=1;" edge="1" parent="ogCLVzEwHubr8CHfSmQu-1" source="39iaVH3k_10COukjtUeR-6" target="LSL4i0tNR-0hNUZhMMNE-44">
          <mxGeometry relative="1" as="geometry" />
        </mxCell>
        <mxCell id="39iaVH3k_10COukjtUeR-11" value="否" style="edgeLabel;html=1;align=center;verticalAlign=middle;resizable=0;points=[];" vertex="1" connectable="0" parent="39iaVH3k_10COukjtUeR-10">
          <mxGeometry x="-0.1765" y="-1" relative="1" as="geometry">
            <mxPoint as="offset" />
          </mxGeometry>
        </mxCell>
        <mxCell id="39iaVH3k_10COukjtUeR-6" value="是否标准商户/平台商" style="strokeWidth=2;html=1;shape=mxgraph.flowchart.decision;whiteSpace=wrap;" vertex="1" parent="ogCLVzEwHubr8CHfSmQu-1">
          <mxGeometry x="450" y="460" width="135.75" height="50" as="geometry" />
        </mxCell>
      </root>
    </mxGraphModel>
  </diagram>
  <diagram id="RhuNVoy5QtBmmnUxn1h7" name="产品开通服务流程图">
    <mxGraphModel dx="807" dy="516" grid="1" gridSize="10" guides="1" tooltips="1" connect="1" arrows="1" fold="1" page="1" pageScale="1" pageWidth="827" pageHeight="1169" math="0" shadow="0">
      <root>
        <mxCell id="s7sI3vbcMK47Q3nZytxV-0" />
        <mxCell id="s7sI3vbcMK47Q3nZytxV-1" parent="s7sI3vbcMK47Q3nZytxV-0" />
        <mxCell id="2sX6nNSbM3r0TTo9ohRo-2" value="" style="edgeStyle=orthogonalEdgeStyle;rounded=0;orthogonalLoop=1;jettySize=auto;html=1;" edge="1" parent="s7sI3vbcMK47Q3nZytxV-1" source="2sX6nNSbM3r0TTo9ohRo-0" target="2sX6nNSbM3r0TTo9ohRo-1">
          <mxGeometry relative="1" as="geometry" />
        </mxCell>
        <mxCell id="2sX6nNSbM3r0TTo9ohRo-0" value="开始" style="strokeWidth=2;html=1;shape=mxgraph.flowchart.start_1;whiteSpace=wrap;" vertex="1" parent="s7sI3vbcMK47Q3nZytxV-1">
          <mxGeometry x="270" y="40" width="100" height="60" as="geometry" />
        </mxCell>
        <mxCell id="2sX6nNSbM3r0TTo9ohRo-4" value="" style="edgeStyle=orthogonalEdgeStyle;rounded=0;orthogonalLoop=1;jettySize=auto;html=1;" edge="1" parent="s7sI3vbcMK47Q3nZytxV-1" source="2sX6nNSbM3r0TTo9ohRo-1" target="2sX6nNSbM3r0TTo9ohRo-3">
          <mxGeometry relative="1" as="geometry" />
        </mxCell>
        <mxCell id="2sX6nNSbM3r0TTo9ohRo-1" value="获取该商户已存在的结算产品" style="whiteSpace=wrap;html=1;strokeWidth=2;" vertex="1" parent="s7sI3vbcMK47Q3nZytxV-1">
          <mxGeometry x="260" y="130" width="120" height="60" as="geometry" />
        </mxCell>
        <mxCell id="2sX6nNSbM3r0TTo9ohRo-6" value="" style="edgeStyle=orthogonalEdgeStyle;rounded=0;orthogonalLoop=1;jettySize=auto;html=1;" edge="1" parent="s7sI3vbcMK47Q3nZytxV-1" source="2sX6nNSbM3r0TTo9ohRo-3" target="2sX6nNSbM3r0TTo9ohRo-5">
          <mxGeometry relative="1" as="geometry" />
        </mxCell>
        <mxCell id="2sX6nNSbM3r0TTo9ohRo-3" value="关闭已开通的结算产品" style="whiteSpace=wrap;html=1;strokeWidth=2;" vertex="1" parent="s7sI3vbcMK47Q3nZytxV-1">
          <mxGeometry x="260" y="220" width="120" height="60" as="geometry" />
        </mxCell>
        <mxCell id="2sX6nNSbM3r0TTo9ohRo-8" value="" style="edgeStyle=orthogonalEdgeStyle;rounded=0;orthogonalLoop=1;jettySize=auto;html=1;" edge="1" parent="s7sI3vbcMK47Q3nZytxV-1" source="2sX6nNSbM3r0TTo9ohRo-5" target="2sX6nNSbM3r0TTo9ohRo-7">
          <mxGeometry relative="1" as="geometry" />
        </mxCell>
        <mxCell id="2sX6nNSbM3r0TTo9ohRo-5" value="开通入参产品" style="whiteSpace=wrap;html=1;strokeWidth=2;" vertex="1" parent="s7sI3vbcMK47Q3nZytxV-1">
          <mxGeometry x="260" y="310" width="120" height="50" as="geometry" />
        </mxCell>
        <mxCell id="2sX6nNSbM3r0TTo9ohRo-10" value="" style="edgeStyle=orthogonalEdgeStyle;rounded=0;orthogonalLoop=1;jettySize=auto;html=1;" edge="1" parent="s7sI3vbcMK47Q3nZytxV-1" source="2sX6nNSbM3r0TTo9ohRo-7" target="2sX6nNSbM3r0TTo9ohRo-9">
          <mxGeometry relative="1" as="geometry" />
        </mxCell>
        <mxCell id="2sX6nNSbM3r0TTo9ohRo-7" value="推送结算产品" style="whiteSpace=wrap;html=1;strokeWidth=2;" vertex="1" parent="s7sI3vbcMK47Q3nZytxV-1">
          <mxGeometry x="260" y="390" width="120" height="50" as="geometry" />
        </mxCell>
        <mxCell id="2sX6nNSbM3r0TTo9ohRo-12" value="" style="edgeStyle=orthogonalEdgeStyle;rounded=0;orthogonalLoop=1;jettySize=auto;html=1;" edge="1" parent="s7sI3vbcMK47Q3nZytxV-1" source="2sX6nNSbM3r0TTo9ohRo-9" target="2sX6nNSbM3r0TTo9ohRo-11">
          <mxGeometry relative="1" as="geometry" />
        </mxCell>
        <mxCell id="2sX6nNSbM3r0TTo9ohRo-9" value="配置计费信息" style="whiteSpace=wrap;html=1;strokeWidth=2;" vertex="1" parent="s7sI3vbcMK47Q3nZytxV-1">
          <mxGeometry x="260" y="470" width="120" height="60" as="geometry" />
        </mxCell>
        <mxCell id="2sX6nNSbM3r0TTo9ohRo-11" value="结束" style="ellipse;whiteSpace=wrap;html=1;strokeWidth=2;" vertex="1" parent="s7sI3vbcMK47Q3nZytxV-1">
          <mxGeometry x="260" y="560" width="120" height="60" as="geometry" />
        </mxCell>
        <mxCell id="2sX6nNSbM3r0TTo9ohRo-13" value="客户中心产品开通接口需要放开营销产品必填限制" style="strokeWidth=2;html=1;shape=mxgraph.flowchart.annotation_2;align=left;labelPosition=right;pointerEvents=1;" vertex="1" parent="s7sI3vbcMK47Q3nZytxV-1">
          <mxGeometry x="380" y="305" width="50" height="60" as="geometry" />
        </mxCell>
        <mxCell id="2sX6nNSbM3r0TTo9ohRo-16" value="结算系统需要支持推送多个结算产品" style="strokeWidth=2;html=1;shape=mxgraph.flowchart.annotation_2;align=left;labelPosition=right;pointerEvents=1;" vertex="1" parent="s7sI3vbcMK47Q3nZytxV-1">
          <mxGeometry x="377" y="380" width="56" height="70" as="geometry" />
        </mxCell>
      </root>
    </mxGraphModel>
  </diagram>
</mxfile>
